<svg xmlns="http://www.w3.org/2000/svg" xmlns:xlink="http://www.w3.org/1999/xlink" width="500" zoomAndPan="magnify" viewBox="0 0 375 374.999991" height="500" preserveAspectRatio="xMidYMid meet" version="1.0"><defs><g/><clipPath id="febc8e4a22"><path d="M 124.148438 124.148438 L 250.851562 124.148438 L 250.851562 250.851562 L 124.148438 250.851562 Z M 124.148438 124.148438 " clip-rule="nonzero"/></clipPath><clipPath id="7649e426e7"><path d="M 187.5 124.148438 C 152.511719 124.148438 124.148438 152.511719 124.148438 187.5 C 124.148438 222.488281 152.511719 250.851562 187.5 250.851562 C 222.488281 250.851562 250.851562 222.488281 250.851562 187.5 C 250.851562 152.511719 222.488281 124.148438 187.5 124.148438 " clip-rule="nonzero"/></clipPath></defs><rect x="-37.5" width="450" fill="#ffffff" y="-37.499999" height="449.999989" fill-opacity="1"/><rect x="-37.5" width="450" fill="#ffffff" y="-37.499999" height="449.999989" fill-opacity="1"/><rect x="-37.5" width="450" fill="#ededf5" y="-37.499999" height="449.999989" fill-opacity="1"/><g fill="#4edadd" fill-opacity="1"><g transform="translate(188.302691, 277.800976)"><g/></g></g><path fill="#095d40" d="M 60.847656 247.605469 C 50.109375 248.753906 39.632812 252.769531 30.644531 259.636719 L 3.796875 159.460938 C 0.0234375 145.371094 4.054688 130.332031 14.371094 120.015625 L 120.007812 14.371094 C 130.324219 4.054688 145.363281 0.0234375 159.453125 3.796875 L 255.921875 29.648438 C 249.390625 38.800781 245.707031 49.367188 244.886719 60.117188 L 164.789062 38.652344 C 153.371094 35.59375 141.183594 38.855469 132.824219 47.222656 L 47.222656 132.824219 C 38.863281 141.183594 35.59375 153.371094 38.652344 164.789062 Z M 313.523438 124.738281 L 336.453125 210.324219 C 339.515625 221.746094 336.25 233.933594 327.886719 242.289062 L 242.28125 327.894531 C 233.925781 336.25 221.738281 339.523438 210.316406 336.460938 L 127.503906 314.269531 C 126.355469 325.003906 122.335938 335.484375 115.472656 344.46875 L 215.644531 371.316406 C 229.738281 375.089844 244.777344 371.058594 255.09375 360.742188 L 360.738281 255.101562 C 371.050781 244.785156 375.082031 229.746094 371.308594 215.652344 L 343.460938 111.726562 C 334.636719 118.925781 324.242188 123.261719 313.523438 124.738281 Z M 313.523438 124.738281 " fill-opacity="1" fill-rule="nonzero"/><path fill="#43b14b" d="M 101.660156 273.457031 C 120.574219 292.371094 120.574219 323.148438 101.660156 342.0625 C 82.746094 360.976562 51.96875 360.976562 33.050781 342.0625 C 14.136719 323.148438 14.136719 292.371094 33.050781 273.457031 C 51.96875 254.539062 82.746094 254.539062 101.660156 273.457031 Z M 270.945312 30.550781 C 252.03125 49.464844 252.03125 80.242188 270.945312 99.15625 C 289.863281 118.074219 320.636719 118.074219 339.554688 99.15625 C 358.46875 80.242188 358.46875 49.464844 339.554688 30.550781 C 320.636719 11.636719 289.863281 11.636719 270.945312 30.550781 Z M 262.441406 107.65625 C 252.769531 97.984375 247.066406 85.828125 245.320312 73.230469 L 166.863281 52.207031 C 156.484375 49.425781 145.410156 52.394531 137.804688 59.992188 L 59.992188 137.804688 C 52.394531 145.402344 49.425781 156.476562 52.207031 166.863281 L 73.84375 247.605469 C 87.117188 249.023438 100.011719 254.796875 110.164062 264.949219 C 120.316406 275.101562 126.089844 287.996094 127.511719 301.273438 L 208.25 322.90625 C 218.628906 325.6875 229.707031 322.71875 237.3125 315.121094 L 315.121094 237.3125 C 322.71875 229.714844 325.6875 218.636719 322.90625 208.25 L 300.644531 125.171875 C 286.707031 124.117188 273.074219 118.289062 262.441406 107.65625 Z M 262.441406 107.65625 " fill-opacity="1" fill-rule="nonzero"/><g clip-path="url(#febc8e4a22)"><g clip-path="url(#7649e426e7)"><path fill="#ededf5" d="M 124.148438 124.148438 L 250.851562 124.148438 L 250.851562 250.851562 L 124.148438 250.851562 Z M 124.148438 124.148438 " fill-opacity="1" fill-rule="nonzero"/></g></g></svg>