<svg xmlns="http://www.w3.org/2000/svg" xmlns:xlink="http://www.w3.org/1999/xlink" width="500" zoomAndPan="magnify" viewBox="0 0 375 374.999991" height="500" preserveAspectRatio="xMidYMid meet" version="1.0"><defs><g/><clipPath id="9b835abe51"><path d="M 124.148438 124.148438 L 250.851562 124.148438 L 250.851562 250.851562 L 124.148438 250.851562 Z M 124.148438 124.148438 " clip-rule="nonzero"/></clipPath><clipPath id="de0566c30e"><path d="M 187.5 124.148438 C 152.511719 124.148438 124.148438 152.511719 124.148438 187.5 C 124.148438 222.488281 152.511719 250.851562 187.5 250.851562 C 222.488281 250.851562 250.851562 222.488281 250.851562 187.5 C 250.851562 152.511719 222.488281 124.148438 187.5 124.148438 " clip-rule="nonzero"/></clipPath></defs><g fill="#4edadd" fill-opacity="1"><g transform="translate(188.302691, 277.800976)"><g/></g></g><path fill="#0c5c43" d="M 60.839844 247.578125 C 50.105469 248.730469 39.628906 252.746094 30.640625 259.609375 L 3.796875 159.445312 C 0.0234375 145.355469 4.054688 130.316406 14.371094 120.003906 L 119.996094 14.371094 C 130.308594 4.054688 145.347656 0.0234375 159.4375 3.796875 L 255.898438 29.648438 C 249.367188 38.796875 245.683594 49.359375 244.859375 60.109375 L 164.773438 38.648438 C 153.355469 35.589844 141.167969 38.851562 132.8125 47.214844 L 47.214844 132.8125 C 38.859375 141.167969 35.589844 153.355469 38.648438 164.773438 Z M 313.492188 124.726562 L 336.421875 210.304688 C 339.480469 221.722656 336.21875 233.910156 327.851562 242.265625 L 242.257812 327.859375 C 233.902344 336.21875 221.714844 339.488281 210.296875 336.429688 L 127.492188 314.238281 C 126.339844 324.972656 122.324219 335.449219 115.460938 344.4375 L 215.625 371.28125 C 229.714844 375.054688 244.753906 371.023438 255.066406 360.707031 L 360.699219 255.074219 C 371.015625 244.757812 375.046875 229.722656 371.273438 215.632812 L 343.425781 111.714844 C 334.601562 118.914062 324.210938 123.25 313.492188 124.726562 Z M 313.492188 124.726562 " fill-opacity="1" fill-rule="nonzero"/><path fill="#43b14b" d="M 101.648438 273.429688 C 120.5625 292.339844 120.5625 323.113281 101.648438 342.027344 C 82.734375 360.941406 51.960938 360.941406 33.050781 342.027344 C 14.136719 323.113281 14.136719 292.339844 33.050781 273.429688 C 51.960938 254.515625 82.734375 254.515625 101.648438 273.429688 Z M 270.917969 30.546875 C 252.007812 49.460938 252.007812 80.234375 270.917969 99.148438 C 289.832031 118.0625 320.605469 118.0625 339.519531 99.148438 C 358.433594 80.234375 358.433594 49.460938 339.519531 30.546875 C 320.605469 11.636719 289.832031 11.636719 270.917969 30.546875 Z M 262.414062 107.644531 C 252.746094 97.976562 247.042969 85.820312 245.296875 73.222656 L 166.847656 52.203125 C 156.46875 49.421875 145.394531 52.390625 137.789062 59.984375 L 59.984375 137.789062 C 52.390625 145.386719 49.421875 156.460938 52.203125 166.847656 L 73.835938 247.578125 C 87.109375 249 100.003906 254.773438 110.15625 264.921875 C 120.304688 275.074219 126.078125 287.96875 127.5 301.242188 L 208.230469 322.875 C 218.609375 325.65625 229.683594 322.6875 237.289062 315.089844 L 315.089844 237.289062 C 322.6875 229.691406 325.65625 218.617188 322.875 208.230469 L 300.613281 125.160156 C 286.679688 124.105469 273.046875 118.277344 262.414062 107.644531 Z M 262.414062 107.644531 " fill-opacity="1" fill-rule="nonzero"/><g clip-path="url(#9b835abe51)"><g clip-path="url(#de0566c30e)"><path fill="#ffffff" d="M 124.148438 124.148438 L 250.851562 124.148438 L 250.851562 250.851562 L 124.148438 250.851562 Z M 124.148438 124.148438 " fill-opacity="1" fill-rule="nonzero"/></g></g></svg>