<svg xmlns="http://www.w3.org/2000/svg" xmlns:xlink="http://www.w3.org/1999/xlink" width="500" zoomAndPan="magnify" viewBox="0 0 375 374.999991" height="500" preserveAspectRatio="xMidYMid meet" version="1.0"><defs><clipPath id="c7aa9b4e83"><path d="M 18.292969 18.292969 L 356.542969 18.292969 L 356.542969 356.542969 L 18.292969 356.542969 Z M 18.292969 18.292969 " clip-rule="nonzero"/></clipPath></defs><g clip-path="url(#c7aa9b4e83)"><path fill="#ffffff" d="M 356.550781 187.421875 C 356.550781 94.011719 280.828125 18.292969 187.421875 18.292969 C 94.011719 18.292969 18.292969 94.011719 18.292969 187.421875 C 18.292969 280.828125 94.011719 356.550781 187.421875 356.550781 C 280.828125 356.550781 356.550781 280.828125 356.550781 187.421875 " fill-opacity="1" fill-rule="nonzero"/></g><path fill="#8c6dfd" d="M 187.421875 241.699219 C 176.765625 241.699219 167.917969 233.488281 167.121094 222.863281 L 156.417969 79.894531 C 155.691406 70.207031 163.359375 61.941406 173.078125 61.941406 L 201.765625 61.941406 C 211.480469 61.941406 219.148438 70.207031 218.425781 79.894531 L 207.71875 222.863281 C 206.921875 233.488281 198.070312 241.699219 187.421875 241.699219 " fill-opacity="1" fill-rule="nonzero"/><path fill="#8c6dfd" d="M 213.628906 286.691406 C 213.628906 272.214844 201.894531 260.480469 187.421875 260.480469 C 172.945312 260.480469 161.210938 272.214844 161.210938 286.691406 C 161.210938 301.164062 172.945312 312.898438 187.421875 312.898438 C 201.894531 312.898438 213.628906 301.164062 213.628906 286.691406 " fill-opacity="1" fill-rule="nonzero"/></svg>